<svg xmlns="http://www.w3.org/2000/svg" viewBox="0 0 109.12 32.65"><defs><style>.cls-1{fill:#ffecc7;}</style></defs><g id="Layer_2" data-name="Layer 2"><g id="BACKGROUND_1" data-name="BACKGROUND 1"><path id="c1" class="cls-1" d="M0,32.65a3.27,3.27,0,0,1,3-2.32,3,3,0,0,1,1.19.25,3.26,3.26,0,0,1,2.94-2.06,2.83,2.83,0,0,1,.87.14l.18-.08a4.91,4.91,0,0,1-.05-.67A4,4,0,0,1,12,23.75a3.5,3.5,0,0,1,1,.15,6.33,6.33,0,0,1,5.83-4.27,5.84,5.84,0,0,1,3.1.89,10.15,10.15,0,0,1,7.28-2.58,7.38,7.38,0,0,1-.43-2.5c0-3.82,2.82-6.92,6.29-6.92a5.76,5.76,0,0,1,2.79.72C39.23,3.91,43.7,0,49,0c5.07,0,9.38,3.57,11,8.56a4.63,4.63,0,0,1,.65,0A6.18,6.18,0,0,1,66,11.79a6,6,0,0,1,3.73-1.32,6.55,6.55,0,0,1,6.19,5.19,14,14,0,0,1,6.18,3.93A6,6,0,0,1,86,18.1a6.64,6.64,0,0,1,6.34,6,3.41,3.41,0,0,1,1.55-.37,3.83,3.83,0,0,1,3.61,2.91,3,3,0,0,1,1.29-.3A3.38,3.38,0,0,1,102,29.78l.19,0a7,7,0,0,1,1.39-.15,6.84,6.84,0,0,1,5.55,3Z"/></g></g></svg>