<svg xmlns="http://www.w3.org/2000/svg" viewBox="0 0 172.14 36.08"><defs><style>.cls-1{fill:#ffecc7;}</style></defs><g id="Layer_2" data-name="Layer 2"><g id="BACKGROUND_1" data-name="BACKGROUND 1"><path id="c3" class="cls-1" d="M162.4,33.33c-1-3-4.58-5.14-8.83-5.14a11.48,11.48,0,0,0-4.09.73,9.75,9.75,0,0,0-2.43-1.16,11.12,11.12,0,0,0-10.91-9l-.68,0a9.56,9.56,0,0,0-9.52-8.66,9.33,9.33,0,0,0-3.39.64A10.17,10.17,0,0,0,104.93,12a10,10,0,0,0-.8,2.34l-.43-.09a8.18,8.18,0,0,0-1.31-.12,7.46,7.46,0,0,0-6.83,4.44A7.86,7.86,0,0,0,95,20.67l-.53-.08c-.23,0-.48,0-.72-.05A8.52,8.52,0,0,0,83.29,8.73,8.88,8.88,0,0,0,66.74,4.41a9.47,9.47,0,0,0-16.42,6.45,8.22,8.22,0,0,0,.06,1,10.51,10.51,0,0,0-9.74,9.37c-3.72-.53-7.14.53-9.21,3.56a5.46,5.46,0,0,0-3.13-1,5.51,5.51,0,0,0-5.5,5,6.57,6.57,0,0,0-11.94,2.85A7.76,7.76,0,0,0,0,36.08H172.14C170.59,34.72,166.93,33.67,162.4,33.33Z"/></g></g></svg>