<svg xmlns="http://www.w3.org/2000/svg" viewBox="0 0 176.56 36.08"><defs><style>.cls-1{fill:#ffecc7;}</style></defs><g id="Layer_2" data-name="Layer 2"><g id="BACKGROUND_1" data-name="BACKGROUND 1"><path id="c4" class="cls-1" d="M168.78,30.8a8.68,8.68,0,0,0-3.72.84,6.83,6.83,0,0,0-6.89-5.71,7.08,7.08,0,0,0-5.75,2.86,5.73,5.73,0,0,0-5.82-5,6.05,6.05,0,0,0-3.32,1c-2.19-3-5.81-4.09-9.74-3.56a10.87,10.87,0,0,0-10.31-9.37,8.22,8.22,0,0,0,.06-1,9.77,9.77,0,0,0-10-9.48,10.31,10.31,0,0,0-7.35,3A9.48,9.48,0,0,0,97.78,0a9.17,9.17,0,0,0-9.39,8.73,9.56,9.56,0,0,0-3-.47,9.16,9.16,0,0,0-7.27,3.5,9.48,9.48,0,0,0-5.3-1.62,9.38,9.38,0,0,0-3.4.64A10.16,10.16,0,0,0,51.85,12a10,10,0,0,0-.8,2.34l-.43-.09a8.2,8.2,0,0,0-1.32-.12,7.45,7.45,0,0,0-7.41,6.55l-.53-.08a7.14,7.14,0,0,0-6.6,2.64,9.55,9.55,0,0,0-13.64,4c-.15.32-.28.64-.4,1h-.54a10.1,10.1,0,0,0-7.68,3.16C6.39,28.8,0,33.66,0,36.08H176.56A8.19,8.19,0,0,0,168.78,30.8Z"/></g></g></svg>