<svg xmlns="http://www.w3.org/2000/svg" viewBox="0 0 785.88 216.72"><defs><style>.cls-1{isolation:isolate;}.cls-2{fill:#304248;}.cls-2,.cls-3{fill-rule:evenodd;}.cls-3{fill:#fff3d7;mix-blend-mode:multiply;}</style></defs><g class="cls-1"><g id="Layer_2" data-name="Layer 2"><g id="BACKGROUND_1" data-name="BACKGROUND 1"><g id="m1"><path id="m1-2" data-name="m1" class="cls-2" d="M778,101.73c-55.35,1.62-318.68,3.45-376.18-10.69s-78.26-26.27-95.06-19.81-27.68,8.89-37.56,8.89-105.75-42-113.66-45.25S11.13,1.63,5.2,0,0,139.53,0,139.53v72.12s771,5.07,781.86,5.07S778,101.73,778,101.73Z"/><path class="cls-3" d="M485.91,99.35c-37.67-1.81-68.46-4.47-84.07-8.31-57.51-14.15-78.26-26.27-95.06-19.81s-27.68,8.89-37.56,8.89-105.75-42-113.66-45.25c-6.48-2.64-66.87-14.48-92.13-21.72C65.27,22,178.9,68.65,230.68,94.63s48.95,14.84,62.13,5.2,25.42-11.14,53.66,1.48S535.73,132.37,538,126.69C538.8,124.8,516.81,113.67,485.91,99.35Z"/></g></g></g></g></svg>