<svg xmlns="http://www.w3.org/2000/svg" viewBox="0 0 289.42 375.9"><defs><style>.cls-1{fill:#6e3a2a;}.cls-1,.cls-10,.cls-11,.cls-12,.cls-13,.cls-14,.cls-15,.cls-16,.cls-17,.cls-18,.cls-19,.cls-2,.cls-20,.cls-21,.cls-22,.cls-23,.cls-24,.cls-25,.cls-26,.cls-27,.cls-28,.cls-3,.cls-30,.cls-31,.cls-32,.cls-33,.cls-34,.cls-35,.cls-36,.cls-39,.cls-4,.cls-40,.cls-41,.cls-43,.cls-44,.cls-45,.cls-5,.cls-6,.cls-7,.cls-8,.cls-9{fill-rule:evenodd;}.cls-2,.cls-23{fill:#531907;}.cls-3{fill:#340d18;}.cls-4{fill:#ffad7c;}.cls-5{fill:#30060b;}.cls-6{fill:#ff985c;}.cls-7{fill:#306993;}.cls-8{fill:#ffe200;}.cls-9{fill:#febe00;}.cls-10{fill:#ff7600;}.cls-11{fill:#4a3049;}.cls-12{fill:#308ec2;}.cls-13{fill:#3080aa;}.cls-14{fill:#3ea4cd;}.cls-15,.cls-41,.cls-44{fill:#420600;}.cls-16{fill:#ffccd6;}.cls-17{fill:#ebb0c7;}.cls-18{fill:#8b350a;}.cls-19{fill:#ffa66e;}.cls-20{fill:#ffba8b;}.cls-21{fill:#ffd26c;}.cls-22{fill:#d95c31;}.cls-23,.cls-41,.cls-44{stroke:#531907;stroke-miterlimit:22.93;}.cls-23,.cls-41{stroke-width:0.57px;}.cls-24{fill:#ff8d53;}.cls-25{fill:#c75a15;}.cls-26{fill:#ff905b;}.cls-27{fill:#895848;}.cls-28,.cls-29{fill:#622f1e;}.cls-30{fill:#ff7418;}.cls-31{fill:#fff1e2;}.cls-32{fill:#fa610a;}.cls-33{fill:#fff7e5;}.cls-34{fill:#9d6d5f;}.cls-35{fill:#cb9b8d;}.cls-36{fill:#430500;}.cls-37,.cls-40{fill:#744536;}.cls-38{fill:ivory;}.cls-39{fill:#542415;}.cls-42,.cls-43{fill:#ffcf00;}.cls-44{stroke-width:0.22px;}.cls-45{fill:#303435;}</style></defs><g id="Layer_2" data-name="Layer 2"><g id="BACKGROUND_1" data-name="BACKGROUND 1"><g id="man_and_stone" data-name="man and stone"><path class="cls-1" d="M120.67,119.54s1.12,6.63.18,6.37-27.37,2.16-27.37,2.16L93,113l27.65-3.36Z"/><path class="cls-2" d="M120.85,125.91c2.07,0,3.75-3.66,3.75-8.15s-1.68-8.16-3.75-8.16-3.75,3.66-3.75,8.16S118.79,125.91,120.85,125.91Z"/><path class="cls-3" d="M79.72,56.54c2.16-1.31,16.47-6.79,13.18-9.94C91.41,45.17,56.25,39.05,55,41.28c-2,3.72-5.89,8.29-1.71,12.43S79.72,56.54,79.72,56.54Z"/><path class="cls-4" d="M56.11,50.31c1.67-3,.7-7.29-.12-7.71s-30.64-6.11-37.75-7.47c-1.73-1.4-4.62-3.55-7.3-4.19-3.61-.87-12.83-3.81-10.6-1.8a42.32,42.32,0,0,0,6.79,4.39s-1.68,3-1,4.54,3.35,2.17,4.68,1.87a52.1,52.1,0,0,1,5.92-.36c7,2.32,31.05,10.41,33.8,11.62A5.27,5.27,0,0,0,56.11,50.31Z"/><path class="cls-5" d="M56.11,50.31a5.39,5.39,0,0,1-4.27,1.28,6.31,6.31,0,0,0,1.47,2.12c3.47,3.45,19.49,3.12,24.74,2.91a39.71,39.71,0,0,1,1.18-5.19,83.17,83.17,0,0,1-11.4-.1A17,17,0,0,1,57,46.41,8.13,8.13,0,0,1,56.11,50.31Z"/><path class="cls-6" d="M51.84,51.59a5.39,5.39,0,0,0,4.27-1.28,8.13,8.13,0,0,0,.92-3.9,6.75,6.75,0,0,1-5.56,2.64c-3.62-.16-31.64-10.31-33-10.72a8.13,8.13,0,0,0-3.86-.65c-1.19.26-5,1.49-6,.68s-.38-5.42-.31-5.84S.11,28.89.11,28.89L.2,29l.14.14a42.32,42.32,0,0,0,6.79,4.39s-1.68,3-1,4.54,3.35,2.17,4.68,1.87a52.1,52.1,0,0,1,5.92-.36c7,2.32,31.05,10.41,33.8,11.62A5.1,5.1,0,0,0,51.84,51.59Z"/><path class="cls-7" d="M99,33.79c8.1-1.45,21.27-10.28,27.17,4.94,3.43,8.86,5,30.41,4.5,40.64-.7,16.21.15,22.25-3.68,28.39-1.94,3.12-33.95,14.06-36.74-11.11-1.7-15.36-11.76-43.75-9.13-44.28S79.11,32.56,99,33.79Z"/><path class="cls-8" d="M131.17,60.57c-1.21-1.13-9.09-4.38-11-2s-1.42,23.29,1.11,25.17,7.22,6.75,9.85,3.84S131.17,60.57,131.17,60.57Z"/><path class="cls-9" d="M119.41,76c.36,3.87,1,7,1.91,7.71,2.53,1.87,7.22,6.75,9.85,3.84a6,6,0,0,0,.89-2.91,8,8,0,0,1-1.57-.28C126.68,83.35,122.35,79.26,119.41,76Z"/><path class="cls-10" d="M133.42,63.85c-.85,1.78-.29,4-4.13,4.69s-8.86-4.2-9.92-6.65-1.61-5.16,1.11-5.45,11,1.13,12,3A9.87,9.87,0,0,1,133.42,63.85Z"/><path class="cls-11" d="M99.11,108.76c4.31-1.32,9.9,1.11,15.82-8s2.46-52.4,3.21-56.62,2-9.28-1.22-10.5S84.35,39.19,82.85,44.12,81.39,106,87,108.29,99.11,108.76,99.11,108.76Z"/><path class="cls-12" d="M109.14,51.38c1.4.47,7.78-2.34,7.68-7.59s-1.18-9.27,1.69-10.6,7.88,9.94,8.91,7.41-.94-8.91-4.6-11.25-36.84,2.16-39.18,6S79,49.22,83,50.61,109.14,51.38,109.14,51.38Z"/><path class="cls-13" d="M111.63,44.54a4.57,4.57,0,0,1,2.2,1,4.57,4.57,0,0,0-2.2-1Zm3.66-3.85c-1.81-1.31-7.41-1.95-9.11-3.09-.9-.6.24-1.67,1.38-3,1-1.14,2-2.47,1.64-3.81a3.09,3.09,0,0,0-1-1.48l-2.7.32a7.55,7.55,0,0,1-3.43,2.42c0,.33-.08.66-.12,1s-.07.78-.09,1.14c0,.62,0,1.19,0,1.73a16.07,16.07,0,0,0,.77,5.1,4,4,0,0,1,.85.39c.47.1.94.21,1.4.34l.17-.19s1.26-1.69,3.59-.24,4,1.66,3,3.22l-.07.11-.16.11a11.45,11.45,0,0,0-1.68,1.4c0,.4.08.84.16,1.33s.23,1.24.4,1.94.29,1.15.47,1.77c.32,1.16.71,2.42,1.14,3.75.44-.94,1.29-3.17,2.09-5.57.22-.65.44-1.32.64-2,.1-.31.2-.63.29-.94a8.65,8.65,0,0,0-1.08-1,22.11,22.11,0,0,0,.93-2.27A9.77,9.77,0,0,0,115.29,40.69Z"/><path class="cls-14" d="M109.88,51.4c2.16-.3,7-3,6.94-7.61-.09-5.25-1.18-9.27,1.69-10.6s7.88,9.94,8.91,7.41a5.8,5.8,0,0,0,.21-2.69,23.23,23.23,0,0,0-3.31-4.25c-3.09-3-6.47-5-8.72-2.34s1,6.81-.84,11.91-3.84,6.46-6.66,6.75A10,10,0,0,0,109.88,51.4Z"/><path class="cls-15" d="M66.54,231.55c-.05.86-.7,4.95-.7,4.95s.48.55-4.69,3.33-10.26,3.11-9.7,4.57,17.75.26,17.75.26,4.25.66,5-.33-.75-10.79-.75-10.79Z"/><path class="cls-10" d="M96.58,112.85c2.15,1.46,5,4.13,6.35,4.57,3.41,1.13,4.2,20.37,4.56,23.63,2.42,21.67,3.47,69.08,2.87,97.77,0,1.75-8.43,1.85-8.59.66-2.2-16.7-13-93-14.72-97.33-1.72,9.58-10,80.94-12.94,97-.44,2.35-5,.24-8.8-2,3.22-15.77,2.09-123.43,5.63-123.54Z"/><path class="cls-16" d="M78.11,45.69c-5.86,2.52-5.06,47.43-10.47,76.67-1.29,7,14.54-3.44,35.1-3.58,2.76,0,1.13-20.4,5.61-41.72s8.7-27.28,6.27-29.66C104.19,37.18,89.43,40.83,78.11,45.69Z"/><path class="cls-17" d="M97.32,74c-.28.85-.75,9.29-1.68,10.69S79.23,82.6,77.45,85s-5.16,14.15-.94,15.09,23.25.47,23.25.47,4.31-2,3.47-10.13S97.32,74,97.32,74Z"/><path class="cls-18" d="M87.81,11c-8.13-2.63-2.7-11.23-2-11,1.43.5,2.45,1.38,5.51,1,14.87-1.84,20.92,6.35,17.3,7.45,0,0,3.3.42,4,6.06.63,4.72-6.83,17.2-10.85,17.57,0,0-1.3-12.74-5.1-17.29A10.44,10.44,0,0,0,87.81,11Z"/><path class="cls-19" d="M87.5,34a11.11,11.11,0,0,1,.65,7c-.2.83-6,10.27-1.16,11,5.51.83,17.05-7,16.06-9.62a17.69,17.69,0,0,1-1.19-8.19c.19-3.57,1.57-9.34,1.11-9.56S87.5,34,87.5,34Z"/><path class="cls-20" d="M101.42,29.14c-.72,6.57-13.63,10.8-16.76,6.53-.84-1.49-1.38-5.75-1.26-7.71,0,0-3.43-1.07-3.08-2.49s4.3-5.94,4.3-5.94a9.32,9.32,0,0,1-.3-5.11c.9-5.67,6.86-8.88,12.24-8.28,10.41,1.16,14.46,5.34,9.56,14,1.21,1.41.52,6.64-2.35,8.44A4.58,4.58,0,0,1,101.42,29.14Z"/><path class="cls-18" d="M86,4.33c-.6,1.77-1,5.4.16,5.94a18.62,18.62,0,0,0,7.27,1.19c3.6,0,6.85-.37,6.8,1.27s-3,9-1.72,10.23,3.31-2.2,4.13-3c1.25-1.19,3.5.14,3.5.14a4.54,4.54,0,0,0,3-3.75c.38-3-.18-8.84-5.29-10.92S86,4.33,86,4.33Z"/><path class="cls-4" d="M115.25,87.69c-1,.8-3.19,5.56-6.69,15.76a129.73,129.73,0,0,1-5.63,14,37.36,37.36,0,0,0-5.69,5.16c-1.09,1.66-1.47,2.19-.68,2.32s7.63,3.77,8.92,2.12,2.61-6,2.62-6c1.79-3.72,14.19-29.51,14.93-30.49S115.25,87.69,115.25,87.69Z"/><path class="cls-3" d="M120.21,58.56c-.64-5.16-4.61-14.28-9.17-14-16.67.87.69,33.69,1.46,38.27.32,1.86-3.7,10.88-1.58,10.88S122.83,98,123.17,95.2C129.75,80.24,120.21,58.56,120.21,58.56Z"/><path class="cls-15" d="M110.5,238c-.38-2.27-5.68-2.3-6.9.38-.42.91-1.7.65-1.83,1.08-.31,1-.16,4.49.44,5a5.13,5.13,0,0,0,1.48.8s-.66.46,1,1.47,6.62,1,8.67.38,1.81-1.81,1.34-2.44-2.79-2.77-3.25-4.33A8.68,8.68,0,0,0,110.5,238Z"/><path class="cls-21" d="M104.73,246.74c1.71,1,6.62,1,8.67.38,1.5-.46,1.78-1.22,1.62-1.84-2.22.57-6,1.31-8.1.65a23.52,23.52,0,0,1-5.14-2.62,2.19,2.19,0,0,0,.43,1.16,5.13,5.13,0,0,0,1.48.8S103,245.73,104.73,246.74Z"/><polygon class="cls-22" points="103.38 116.01 109.66 118.77 108.94 120.32 102.66 117.56 103.38 116.01"/><path class="cls-1" d="M106.1,120.57a2.36,2.36,0,1,0-2.38-2.36A2.38,2.38,0,0,0,106.1,120.57Z"/><path class="cls-3" d="M88.11,53.93c4.33-.07,18.8-7.37,16.76-12.17-.73-.2-1.47-.37-2.22-.5.12.37.26.74.4,1.12C104,45,92.5,52.83,87,52c-3.9-.58-.91-6.79.52-9.64-.49.13-1,.27-1.47.42C83.11,47.07,80.09,54.06,88.11,53.93Z"/><path class="cls-2" d="M105,41.56s-4.83,5.13-5.7,15.87,7.1,32.63,9.1,32.38,2.93-6.48,2.48-8c-4-13.69-9.24-30.51.68-37.15,1.16-1.66-.65-1.88-3-3.33S105,41.56,105,41.56Z"/><path class="cls-23" d="M83.3,43.66c-3,2.81-9.59,14.29-10.82,33.15-.21,0-3.89-27.89,5.92-32.95A6.37,6.37,0,0,1,83.3,43.66Z"/><path class="cls-17" d="M85.22,113.22A62.52,62.52,0,0,1,69.66,120l-1.69.49-.33,1.85c-.3,1.6.31,2.29,1.68,2.38,4.43.32,16.76-5.46,31.88-5.93l1.52-1.23-.06,0,.09-.21.63-1.34.17.08c.22-.46.44-1,.69-1.52.11-1,.21-2.14.31-3.43.43-5.76.77-14.26,2-23.62-3-5.86-8-21.52-7.27-30.09a34.08,34.08,0,0,1,2.12-9.58,36.44,36.44,0,0,1-8.5,4.79l2.68.29s1.3-.72-.15,4.5,1.31,16,3.49,27.13-.59,13.5-5.8,21.34A26.43,26.43,0,0,1,85.22,113.22Z"/><path class="cls-17" d="M107.44,69.28c.42,1.82.9,3.66,1.4,5.48.09-.37.17-.73.25-1.08C108.55,72.29,108,70.81,107.44,69.28Z"/><path class="cls-6" d="M101,45.86c1.51-1.38,2.38-2.67,2.08-3.48-.14-.38-.28-.75-.4-1.12a17.86,17.86,0,0,1-.79-7.07c0-.65.11-1.37.21-2.12s.66-2.46.76-3.09c-.26.11-1.18.1-1.41.16L100.9,31a31,31,0,0,1-2.51,9.88,16.21,16.21,0,0,1-.83,1.54,22.16,22.16,0,0,1-3.31,4,53.66,53.66,0,0,1-7,5.66C91.06,52.44,97.61,48.93,101,45.86Z"/><path class="cls-24" d="M105.63,22.08c.76,1.29-.45,3.12-1.86,4.52s-3.2.54-3.16-.65,1.28-1.26,1.44-2-.39-.68-.39-1.4C101.66,21.15,104.37,19.93,105.63,22.08Z"/><path class="cls-25" d="M74.11,239.19c3-16.1,11.22-87.46,12.94-97L85,128.61S79,177.8,73.38,198.55A53.39,53.39,0,0,1,67,213.85c-.39,11.09-.9,19.72-1.65,23.38C69.16,239.43,73.67,241.54,74.11,239.19Z"/><path class="cls-25" d="M97.15,206.29c2.08,14.56,3.86,27.43,4.62,33.19.13-.43,1.41-.17,1.83-1.08,1.14-2.51,5.88-2.64,6.78-.77.55-28.79-.5-75.2-2.89-96.58-.17-1.59-.45-7-1.08-12.19,0,0-2.7,4.24-3.28,28C102.79,170.74,100,190.85,97.15,206.29Z"/><path class="cls-26" d="M117.19,95.34s-2.9,7.25-6.23,14.41c-1.08,2.32-2.21,4.63-3.29,6.68a2.35,2.35,0,0,1,.82,1.78v.05l.77.34c1.17-2.45,3-6.2,4.91-10.17,2.1-4.34,4.34-9,6-12.4A27.92,27.92,0,0,1,117.19,95.34Z"/><path class="cls-26" d="M107.83,119.83a2.36,2.36,0,0,1-1.73.74,2.25,2.25,0,0,1-.74-.12L105,121c-1.67,2.64-2.63,4.48-3.54,5.83,1.76.59,3.44.91,4,.17a6.24,6.24,0,0,0,.56-.87A34.07,34.07,0,0,0,108.1,121c.1-.22.24-.51.42-.88Z"/><path class="cls-5" d="M119,88.59a34.67,34.67,0,0,1-1.8,6.75,27.92,27.92,0,0,0,3,.69c1.63.24,2.84.12,3-.83.22-.5.42-1,.61-1.52,5.34-14.86-3.57-35.12-3.57-35.12-.61-4.93-4.27-13.49-8.58-14l-.07.11-.16.11a11.45,11.45,0,0,0-1.68,1.4c0,.4.08.84.16,1.33a78.34,78.34,0,0,0,3.2,11c2.55,7.42,5.71,15.79,6.23,20.36A35.45,35.45,0,0,1,119,88.59Z"/><path class="cls-23" d="M93.33,21.62a5.44,5.44,0,0,1-5.21,2c-3.47-.45-2.25-2.57-4.07-3.44a32.89,32.89,0,0,1,.09-3.34L102.62,20l-1.3,1.56Z"/><path class="cls-27" d="M90.16,23.6l-1.73-6-2.53-.43c.42,1.69,1.08,4.41,1.56,6.36a5.59,5.59,0,0,0,.66.12A6.5,6.5,0,0,0,90.16,23.6Z"/><path class="cls-2" d="M97.15,88.31s.58-4.41,1.35-10.39c1.6-12.49,4.08-32,4.08-33.51V41c1.73.58,1.5,1.2,1.5,3.39,0,2.35-5.43,44-5.45,44.09Z"/><path class="cls-2" d="M78.81,88.54l-1.47-.27c0-.13,8.29-44.82,8.63-45.23a4.72,4.72,0,0,1,1.64-.88C85.6,46.77,81.36,74.6,78.81,88.54Z"/><path class="cls-28" d="M82.59,86.49v.65H79.73v-.65a.28.28,0,0,1,0-.09h2.83A.29.29,0,0,1,82.59,86.49Z"/><rect class="cls-29" x="83.26" y="86.54" width="1.71" height="0.57"/><path class="cls-30" d="M98.91,87.58V97.66H77.31V87.58a.68.68,0,0,1,.09-.35H98.82A.68.68,0,0,1,98.91,87.58Z"/><path class="cls-31" d="M98.82,87.23H77.4a.74.74,0,0,1,.65-.39H98.17A.74.74,0,0,1,98.82,87.23Z"/><path class="cls-32" d="M98.91,97.66a.74.74,0,0,1-.74.74H78.05a.74.74,0,0,1-.74-.74Z"/><path class="cls-33" d="M93,92.62a4.86,4.86,0,1,1-4.86-4.86A4.86,4.86,0,0,1,93,92.62Z"/><path class="cls-34" d="M92.41,92.62a4.3,4.3,0,1,1-4.3-4.3A4.31,4.31,0,0,1,92.41,92.62Z"/><path class="cls-35" d="M91.84,92.62a3.73,3.73,0,1,1-3.73-3.73A3.73,3.73,0,0,1,91.84,92.62Z"/><path class="cls-28" d="M91.34,92.62a3.23,3.23,0,1,1-3.23-3.23A3.23,3.23,0,0,1,91.34,92.62Z"/><path class="cls-36" d="M90,92.62a1.89,1.89,0,1,1-1.89-1.9A1.89,1.89,0,0,1,90,92.62Z"/><path class="cls-28" d="M89.26,92.62a1.15,1.15,0,1,1-1.15-1.15A1.15,1.15,0,0,1,89.26,92.62Z"/><rect class="cls-37" x="92.22" y="87.68" width="3.42" height="1.44" rx="0.36"/><rect class="cls-38" x="92.35" y="87.82" width="3.15" height="1.16" rx="0.22"/><path class="cls-39" d="M80.53,95.14v-5a1.69,1.69,0,0,0-1.69-1.69H77.31v8.42h1.53A1.69,1.69,0,0,0,80.53,95.14Z"/><path class="cls-39" d="M95.69,90.1v5a1.69,1.69,0,0,0,1.69,1.69h1.53V88.41H97.38A1.69,1.69,0,0,0,95.69,90.1Z"/><path class="cls-40" d="M82.57,86.4H79.74a.31.31,0,0,1,.29-.22h2.25A.3.3,0,0,1,82.57,86.4Z"/><path class="cls-31" d="M89.1,92.39a.59.59,0,1,1-.59-.58A.59.59,0,0,1,89.1,92.39Z"/><path class="cls-41" d="M59.49,241.2c1.83-.93,4.54-1.64,5.31-3.57s.65-7.94,1.37-7.95,9.53.16,9.3,1-.27,8-.7,10.19.82,3.43-.48,3.08-16,.94-15.92.34A28.25,28.25,0,0,1,59.49,241.2Z"/><path class="cls-21" d="M65.84,243.22c-3.21.06-8.48.19-13.47.05-1.26.26-1,.87-.92,1.19C52,246,70,244.74,70,244.74s4.45.69,5.2-.35a13.74,13.74,0,0,0-.06-2.12A89.17,89.17,0,0,1,65.84,243.22Z"/><rect class="cls-42" x="64.62" y="231.85" width="1.85" height="0.95" rx="0.47"/><rect class="cls-42" x="64.41" y="233.75" width="1.85" height="0.95" rx="0.47"/><rect class="cls-42" x="64.1" y="235.43" width="1.85" height="0.95" rx="0.47"/><path class="cls-43" d="M62.88,238.42l.48.76a.47.47,0,0,1-.15.65h0a.48.48,0,0,1-.66-.15l-.47-.76a.48.48,0,0,1,.15-.66h0A.46.46,0,0,1,62.88,238.42Z"/><path class="cls-43" d="M61.16,239.24l.47.76a.47.47,0,0,1-.15.65h0a.47.47,0,0,1-.65-.15l-.47-.76a.47.47,0,0,1,.15-.65h0A.47.47,0,0,1,61.16,239.24Z"/><path class="cls-43" d="M59.57,239.87l.47.76a.47.47,0,0,1-.15.65h0a.47.47,0,0,1-.65-.15l-.48-.76a.48.48,0,0,1,.15-.66h0A.48.48,0,0,1,59.57,239.87Z"/><path class="cls-44" d="M106.19,241.07c-1.74.05-4.51.8-4.53-.92s-1.84-10.88-1.29-11,9.64-1.43,10.12-.12-.07,5.92.59,10.08Z"/><path class="cls-43" d="M109.51,231.24l-6.14.44a.46.46,0,0,0-.44.5h0a.48.48,0,0,0,.51.44l6.14-.43a.48.48,0,0,0,.44-.51h0A.47.47,0,0,0,109.51,231.24Z"/><path class="cls-43" d="M109.73,233.51l-6.15.44a.47.47,0,0,0-.44.51h0a.49.49,0,0,0,.51.44l6.14-.44a.48.48,0,0,0,.44-.51h0A.47.47,0,0,0,109.73,233.51Z"/><path class="cls-43" d="M109.89,236.14l-6.15.43a.49.49,0,0,0-.44.51h0a.48.48,0,0,0,.51.44l6.15-.44a.46.46,0,0,0,.44-.5h0A.48.48,0,0,0,109.89,236.14Z"/><path class="cls-43" d="M111.52,241.56l-5.16.42a.49.49,0,0,0-.44.51h0a.47.47,0,0,0,.5.44l5.16-.43A.48.48,0,0,0,112,242h0A.46.46,0,0,0,111.52,241.56Z"/><path class="cls-43" d="M110.6,240.29l-5.15.43a.48.48,0,0,0-.44.51h0a.46.46,0,0,0,.5.43l5.15-.42a.49.49,0,0,0,.45-.51h0A.48.48,0,0,0,110.6,240.29Z"/><path class="cls-43" d="M110.09,239.19l-5.15.42a.49.49,0,0,0-.45.51h0a.48.48,0,0,0,.51.44l5.15-.43a.48.48,0,0,0,.44-.51h0A.45.45,0,0,0,110.09,239.19Z"/><path class="cls-18" d="M83.05,28.12s2.46.44,3.19.68,2.79,3.75,3.16,4,6.42-2.41,7.41-5a30.91,30.91,0,0,0,1.37-6.21l1.44.49a5.5,5.5,0,0,0,.09,4.32c1,2.38,1.71,2.75,1.71,2.75a7.21,7.21,0,0,1-1.77,4.52C97.75,36.09,91,38.8,88,38s-3.82-.73-4.17-2.91S83.05,28.12,83.05,28.12Z"/><path class="cls-45" d="M289.42,257.9c-13.1,0-141.67-19.71-141.67-19.71L85.43,239.9l-64,6.91,11.7,58.52,24,23.41,6.1,47.16H289.42Z"/></g></g></g></svg>