<svg xmlns="http://www.w3.org/2000/svg" viewBox="0 0 929.58 448.09"><defs><style>.cls-1,.cls-2{fill:#292929;}.cls-1{fill-rule:evenodd;}</style></defs><g id="Layer_2" data-name="Layer 2"><g id="BACKGROUND_1" data-name="BACKGROUND 1"><g id="front_cloud_bottom" data-name="front cloud bottom"><path class="cls-1" d="M906.25,0a25.74,25.74,0,0,0-25.62,23.3,16,16,0,0,0-14,11.28A18.89,18.89,0,0,0,836.46,56a25.31,25.31,0,0,0-46,13,18,18,0,0,0-12.07,6.43,17,17,0,0,0-21.59,16.35,16.93,16.93,0,0,0,.76,5,33.43,33.43,0,0,0-46.28,16.57,29.87,29.87,0,0,0-17.19,9.7,18.26,18.26,0,0,0-34.82,7.38,16.65,16.65,0,0,0-19.59,10,16.56,16.56,0,0,0-1.73-.1,15,15,0,0,0-3.82.49,32.58,32.58,0,0,0-30.33,29.39H920V4A25.56,25.56,0,0,0,906.25,0Z"/><path class="cls-1" d="M30,17.82c22.31,0,40.64,14.72,42.69,33.53,11,.79,20.15,7.39,23.26,16.25a34.15,34.15,0,0,1,21.54-7.37C134.9,60.23,149,72.4,149,87.41a24,24,0,0,1-2.66,11C154,89,166.55,82.93,180.8,82.93c22.41,0,40.75,15.11,42.1,34.18A31.63,31.63,0,0,1,243,126.37a32.18,32.18,0,0,1,7.68-.91c15.62,0,28.29,10.94,28.29,24.43a21.49,21.49,0,0,1-1.26,7.22,62.55,62.55,0,0,1,25.83-5.48c23,0,42.82,12.09,51.28,29.33a52.11,52.11,0,0,1,28.65,14c4.84-9,15.38-15.21,27.61-15.21,16.63,0,30.15,11.53,30.42,25.84a32,32,0,0,1,6.92-.76c11.68,0,21.66,6.25,25.72,15.08,1-.09,1.91-.14,2.89-.14a28.76,28.76,0,0,1,6.36.7c26.63,1.46,48,19.51,50.54,42.31H7.17V23.52A47.74,47.74,0,0,1,30,17.82Z"/><path class="cls-1" d="M280.12,145.13c20-9.9,42.95-4.84,53.13,11.1,10.24-4.18,21.34-2.32,28.05,4.24a34.23,34.23,0,0,1,16-16.16c15.58-7.71,33.6-3.06,40.27,10.39a24.05,24.05,0,0,1,2.47,11c2.7-11.76,11.28-22.81,24-29.13,20.1-9.95,43.23-4.55,52.9,11.94a31.66,31.66,0,0,1,22.13-.63,32.27,32.27,0,0,1,6.48-4.22c14-6.94,30.2-2.75,36.19,9.34a21.23,21.23,0,0,1,2.08,7,62.67,62.67,0,0,1,20.71-16.37c20.65-10.23,43.74-8.16,59,3.53a52.1,52.1,0,0,1,31.87-.21c.35-10.2,7-20.46,18-25.89,14.91-7.38,32.14-3,38.74,9.66A31.85,31.85,0,0,1,738,127c10.46-5.18,22.18-4,29.74,2.1.81-.5,1.65-1,2.53-1.41a29.64,29.64,0,0,1,6-2.2C800.82,115,828,121.65,840.37,141l-472,233.78L262.16,160.38A47.7,47.7,0,0,1,280.12,145.13Z"/><rect class="cls-2" y="162.22" width="929.58" height="285.86"/></g></g></g></svg>