<svg xmlns="http://www.w3.org/2000/svg" viewBox="0 0 876.55 225.27"><defs><style>.cls-1{fill:#303133;}</style></defs><g id="Layer_2" data-name="Layer 2"><g id="BACKGROUND_1" data-name="BACKGROUND 1"><g id="front_tree" data-name="front tree"><path class="cls-1" d="M344.34,143.66l-4.54-.09-30-8.92,15.47-37L318,95.48l17-40.72-4.24-1.26-.6-.18L352.44,0l20.17,54.16-4.9,1.25,15.4,41.36-.86.22-6.5,1.66,14,37.55h0v0L359.38,144l-5.79-.11a51.68,51.68,0,0,0,2.73,18.89,27.09,27.09,0,0,1,2.73.19c3.23.43,7.44,4,7.44,4s-35-.62-34.7-.68a62.12,62.12,0,0,1,9.35-3.76A77,77,0,0,0,344.34,143.66Z"/><path class="cls-1" d="M401.71,173.25l-4.53-.09-30-8.93,15.48-37-7.29-2.16,17-40.72-4.24-1.26-.6-.18,22.3-53.32L430,83.75,425.09,85l15.4,41.36-.86.22-6.51,1.65,14,37.56h0v0l-30.37,7.73-5.78-.12a51.65,51.65,0,0,0,2.73,18.89,24.73,24.73,0,0,1,2.73.2c3.23.42,7.44,4,7.44,4s-35-.62-34.71-.69a62.9,62.9,0,0,1,9.36-3.75A77.07,77.07,0,0,0,401.71,173.25Z"/><path class="cls-1" d="M450.12,173.25l-4.53-.09-30-8.93,15.47-37-7.29-2.16,17-40.72-4.24-1.26-.6-.18,22.3-53.32L478.4,83.75,473.5,85l15.4,41.36-.86.22-6.5,1.65,14,37.56h0v0l-30.36,7.73-5.79-.12a51.65,51.65,0,0,0,2.73,18.89,24.56,24.56,0,0,1,2.73.2c3.23.42,7.44,4,7.44,4s-35-.62-34.71-.69a62.9,62.9,0,0,1,9.36-3.75A77.07,77.07,0,0,0,450.12,173.25Z"/><path class="cls-1" d="M540.67,181.32l-4.53-.09-30-8.93,15.48-37-7.29-2.17,17-40.71-4.24-1.26-.6-.18,22.3-53.33L569,91.82l-4.9,1.25,15.4,41.36-.86.22-6.51,1.65,14,37.56h0v0l-30.37,7.74-5.78-.12a51.68,51.68,0,0,0,2.73,18.89,24.73,24.73,0,0,1,2.73.2c3.23.42,7.44,4,7.44,4s-35-.62-34.71-.69a62.9,62.9,0,0,1,9.36-3.75A77.07,77.07,0,0,0,540.67,181.32Z"/><path class="cls-1" d="M493.16,173.25l-4.54-.09-30-8.93,15.47-37-7.28-2.16,17-40.72-4.23-1.26-.61-.18,22.3-53.32,20.17,54.16L516.53,85l15.4,41.36-.86.22-6.5,1.65,14,37.56h0v0l-30.36,7.73-5.79-.12a51.65,51.65,0,0,0,2.73,18.89,24.39,24.39,0,0,1,2.73.2c3.24.42,7.44,4,7.44,4s-35-.62-34.7-.69a62.57,62.57,0,0,1,9.35-3.75A76.6,76.6,0,0,0,493.16,173.25Z"/><path class="cls-1" d="M299.51,163.39,295,163.3l-30-8.93,15.47-37-7.28-2.17,17-40.71-4.24-1.26-.61-.18,22.3-53.33,20.17,54.17-4.9,1.25,15.41,41.36-.87.22-6.5,1.65,14,37.56h0v0l-30.36,7.74-5.78-.12a51.46,51.46,0,0,0,2.72,18.89,24.39,24.39,0,0,1,2.73.2c3.24.42,7.44,4,7.44,4s-35-.62-34.7-.69a62.39,62.39,0,0,1,9.36-3.75A77.07,77.07,0,0,0,299.51,163.39Z"/><path class="cls-1" d="M634.81,164.37l-4.54-.08-30-8.93,15.47-37-7.28-2.17,17-40.72-4.24-1.26-.61-.18,22.3-53.32,20.17,54.17-4.89,1.24,15.4,41.36-.87.22-6.5,1.66,14,37.56h0v0l-30.37,7.73-5.78-.11a51.26,51.26,0,0,0,2.73,18.89,24.73,24.73,0,0,1,2.73.2c3.23.42,7.43,4,7.43,4s-35-.62-34.7-.69a62,62,0,0,1,9.36-3.76A76.91,76.91,0,0,0,634.81,164.37Z"/><path class="cls-1" d="M692.19,194l-4.54-.09-30-8.93,15.47-37-7.28-2.16,17-40.72-4.23-1.26-.61-.18,22.3-53.32,20.17,54.16-4.9,1.25L731,147.07l-.86.22-6.5,1.65,14,37.56h0v0l-30.36,7.73-5.79-.12a51.73,51.73,0,0,0,2.73,18.9,22.14,22.14,0,0,1,2.73.19c3.24.42,7.44,4,7.44,4s-35-.62-34.7-.69a62.57,62.57,0,0,1,9.35-3.75A76.6,76.6,0,0,0,692.19,194Z"/><path class="cls-1" d="M740.6,194l-4.54-.09-30-8.93,15.47-37-7.28-2.16,17-40.72L727,103.8l-.61-.18L748.7,50.3l20.17,54.16L764,105.71l15.4,41.36-.87.22-6.5,1.65,14,37.56h0v0l-30.36,7.73-5.78-.12a51.51,51.51,0,0,0,2.72,18.9,22.14,22.14,0,0,1,2.73.19c3.24.42,7.44,4,7.44,4s-35-.62-34.7-.69a62.39,62.39,0,0,1,9.36-3.75A77.07,77.07,0,0,0,740.6,194Z"/><path class="cls-1" d="M831.15,202l-4.54-.09-30-8.93,15.47-37-7.28-2.16,17-40.72-4.24-1.26-.61-.18,22.3-53.33,20.17,54.17-4.9,1.25,15.41,41.36-.87.22-6.5,1.65,14,37.56h0v0l-30.36,7.73-5.79-.12a51.68,51.68,0,0,0,2.73,18.89,24.39,24.39,0,0,1,2.73.2c3.24.42,7.44,4,7.44,4s-35-.62-34.7-.69a62.57,62.57,0,0,1,9.35-3.75A76.6,76.6,0,0,0,831.15,202Z"/><path class="cls-1" d="M783.63,194l-4.53-.09-30-8.93,15.48-37-7.29-2.16,17-40.72L770,103.8l-.6-.18,22.3-53.32,20.17,54.16-4.9,1.25,15.4,41.36-.86.22L815,148.94l14,37.56h0v0l-30.37,7.73-5.78-.12a51.73,51.73,0,0,0,2.73,18.9,22.41,22.41,0,0,1,2.73.19c3.23.42,7.44,4,7.44,4s-35-.62-34.71-.69a62.9,62.9,0,0,1,9.36-3.75A77.07,77.07,0,0,0,783.63,194Z"/><path class="cls-1" d="M590,184.1l-4.53-.09-30-8.93,15.47-37-7.29-2.17,17-40.71-4.24-1.26-.6-.18,22.3-53.33L618.26,94.6l-4.9,1.25,15.4,41.36-.86.22-6.5,1.65,14,37.56h0v0L605,184.4l-5.79-.12A51.68,51.68,0,0,0,602,203.17a24.56,24.56,0,0,1,2.73.2c3.23.42,7.44,4,7.44,4s-35-.62-34.71-.69a62.9,62.9,0,0,1,9.36-3.75A77.07,77.07,0,0,0,590,184.1Z"/><path class="cls-1" d="M79.39,144.56l-4.53-.09-30-8.93,15.47-37L53,96.38,70,55.66,65.8,54.4l-.6-.18L87.5.9l20.17,54.16-4.9,1.25,15.4,41.36-.86.22-6.5,1.66,14,37.55h0v0l-30.36,7.73-5.79-.12a51.73,51.73,0,0,0,2.73,18.9,24.44,24.44,0,0,1,2.73.19c3.23.42,7.44,4,7.44,4s-35-.62-34.71-.69a64.11,64.11,0,0,1,9.36-3.75A77.07,77.07,0,0,0,79.39,144.56Z"/><path class="cls-1" d="M136.77,174.15l-4.53-.09-30-8.93,15.48-37L110.39,126l17-40.72L123.18,84l-.6-.18,22.3-53.32L165,84.65l-4.89,1.24,15.4,41.36-.86.22-6.51,1.66,14,37.56h0v0l-30.37,7.73-5.78-.11a51.68,51.68,0,0,0,2.73,18.89,24.73,24.73,0,0,1,2.73.2c3.23.42,7.44,4,7.44,4s-35-.62-34.71-.69a62.9,62.9,0,0,1,9.36-3.75A77.07,77.07,0,0,0,136.77,174.15Z"/><path class="cls-1" d="M185.18,174.15l-4.53-.09-30-8.93,15.47-37L158.8,126l17-40.72L171.59,84l-.6-.18,22.3-53.32,20.17,54.17-4.9,1.24L224,127.25l-.86.22-6.51,1.66,14,37.56h0v0l-30.36,7.73-5.79-.11a51.68,51.68,0,0,0,2.73,18.89,24.73,24.73,0,0,1,2.73.2c3.23.42,7.44,4,7.44,4s-35-.62-34.71-.69A62.9,62.9,0,0,1,182,193,77.07,77.07,0,0,0,185.18,174.15Z"/><path class="cls-1" d="M275.73,182.21l-4.53-.09-30-8.92,15.48-37L249.35,134l17-40.72-4.24-1.26-.6-.18,22.3-53.32L304,92.71,299.11,94l15.4,41.36-.86.22-6.51,1.66,14,37.56h0v0l-30.37,7.73L285,182.4a51.68,51.68,0,0,0,2.73,18.89,24.73,24.73,0,0,1,2.73.2c3.23.42,7.44,4,7.44,4s-35-.62-34.71-.69a62.45,62.45,0,0,1,9.36-3.76A76.91,76.91,0,0,0,275.73,182.21Z"/><path class="cls-1" d="M228.22,174.15l-4.54-.09-30-8.93,15.47-37L201.83,126l17-40.72L214.63,84,214,83.8l22.3-53.32,20.17,54.17-4.9,1.24L267,127.25l-.86.22-6.5,1.66,14,37.56h0v0l-30.36,7.73-5.79-.11a51.68,51.68,0,0,0,2.73,18.89,24.39,24.39,0,0,1,2.73.2c3.24.42,7.44,4,7.44,4s-35-.62-34.7-.69A62.57,62.57,0,0,1,225,193,77.08,77.08,0,0,0,228.22,174.15Z"/><path class="cls-1" d="M34.57,164.28,30,164.19,0,155.27l15.47-37L8.19,116.1l17-40.72L21,74.12l-.61-.18,22.3-53.32L62.84,74.78,57.94,76l15.41,41.36-.87.22L66,119.27l14,37.55h0v0l-30.36,7.73-5.79-.11a51.68,51.68,0,0,0,2.73,18.89,26.89,26.89,0,0,1,2.73.19c3.24.43,7.44,4,7.44,4s-35-.62-34.7-.68a62,62,0,0,1,9.36-3.76A77,77,0,0,0,34.57,164.28Z"/></g></g></g></svg>