<svg xmlns="http://www.w3.org/2000/svg" viewBox="0 0 780.81 183.83"><defs><style>.cls-1{isolation:isolate;}.cls-2{fill:#30474f;}.cls-2,.cls-3{fill-rule:evenodd;}.cls-3{fill:#fff3d7;mix-blend-mode:multiply;}</style></defs><g class="cls-1"><g id="Layer_2" data-name="Layer 2"><g id="BACKGROUND_1" data-name="BACKGROUND 1"><g id="m2"><path class="cls-2" d="M761.08,107.07c-16.91-3.27-274-89.36-314.51-85.92s-67.81,41-91.29,54.89-59.18-9.8-77-17.15S192.44,2.42,171.17.1,109.66,38.75,84.28,38.75s-70,21-76.56,22.59S0,155.52,0,155.52l780.81,28.31Z"/><path class="cls-3" d="M618.83,63.44c-73.27-22.15-151.4-44.06-172.26-42.29C406,24.59,378.76,62.16,355.28,76s-59.18-9.8-77-17.15S192.44,2.42,171.17.1a19.31,19.31,0,0,0-4.66.11c0,.26,1,32.1,19.73,44.05s2.69-4.5,39.37,6S331.49,114.49,359.83,105s28.63-24,44.73-41.26S477,38.26,513.73,46.51C540.77,52.59,595,62.34,618.83,63.44Z"/></g></g></g></g></svg>