<svg xmlns="http://www.w3.org/2000/svg" viewBox="0 0 558.59 194.31"><defs><style>.cls-1{isolation:isolate;}.cls-2{fill:#305664;}.cls-2,.cls-3{fill-rule:evenodd;}.cls-3{fill:#fff3d7;mix-blend-mode:multiply;}</style></defs><g class="cls-1"><g id="Layer_2" data-name="Layer 2"><g id="BACKGROUND_1" data-name="BACKGROUND 1"><g id="m3"><path class="cls-2" d="M558.59,160.06c-37.18-15.35-203.54-98.57-226.77-93.72S277.91,68,258.39,57.45,167.31,9.79,141.29.9,63.22,51.8,56.72,58.26,0,109.16,0,109.16s-1.75,82.61,23.35,85S558.59,160.06,558.59,160.06Z"/><path class="cls-3" d="M413.3,93.83c-38.66-16.77-72-29.47-81.48-27.49-23.24,4.85-53.91,1.62-73.43-8.89S167.31,9.79,141.29.9c-5-1.71-11-.87-17.44,1.65,5.29,9.72,119,78,150,87.63s20.36-3,39.84-3,39.84,14.84,65.51,12.61C393,98.63,407.27,97.43,413.3,93.83Z"/></g></g></g></g></svg>