<svg xmlns="http://www.w3.org/2000/svg" viewBox="0 0 269.95 386.3"><defs><style>.cls-1{fill:#6e3a2a;}.cls-1,.cls-10,.cls-11,.cls-12,.cls-13,.cls-14,.cls-15,.cls-16,.cls-17,.cls-18,.cls-19,.cls-2,.cls-20,.cls-21,.cls-22,.cls-23,.cls-24,.cls-25,.cls-26,.cls-27,.cls-28,.cls-3,.cls-30,.cls-31,.cls-32,.cls-33,.cls-34,.cls-35,.cls-36,.cls-39,.cls-4,.cls-40,.cls-41,.cls-43,.cls-44,.cls-45,.cls-5,.cls-6,.cls-7,.cls-8,.cls-9{fill-rule:evenodd;}.cls-2,.cls-23{fill:#531907;}.cls-3{fill:#340d18;}.cls-4{fill:#ffad7c;}.cls-5{fill:#30060b;}.cls-6{fill:#ff985c;}.cls-7{fill:#306993;}.cls-8{fill:#ffe200;}.cls-9{fill:#febe00;}.cls-10{fill:#ff7600;}.cls-11{fill:#4a3049;}.cls-12{fill:#308ec2;}.cls-13{fill:#3080aa;}.cls-14{fill:#3ea4cd;}.cls-15,.cls-41,.cls-44{fill:#420600;}.cls-16{fill:#ffccd6;}.cls-17{fill:#ebb0c7;}.cls-18{fill:#8b350a;}.cls-19{fill:#ffa66e;}.cls-20{fill:#ffba8b;}.cls-21{fill:#ffd26c;}.cls-22{fill:#d95c31;}.cls-23,.cls-41,.cls-44{stroke:#531907;stroke-miterlimit:22.93;}.cls-23,.cls-41{stroke-width:0.57px;}.cls-24{fill:#ff8d53;}.cls-25{fill:#c75a15;}.cls-26{fill:#ff905b;}.cls-27{fill:#895848;}.cls-28,.cls-29{fill:#622f1e;}.cls-30{fill:#ff7418;}.cls-31{fill:#fff1e2;}.cls-32{fill:#fa610a;}.cls-33{fill:#fff7e5;}.cls-34{fill:#9d6d5f;}.cls-35{fill:#cb9b8d;}.cls-36{fill:#430500;}.cls-37,.cls-40{fill:#744536;}.cls-38{fill:ivory;}.cls-39{fill:#542415;}.cls-42,.cls-43{fill:#ffcf00;}.cls-44{stroke-width:0.22px;}.cls-45{fill:#303435;}</style></defs><g id="Layer_2" data-name="Layer 2"><g id="BACKGROUND_1" data-name="BACKGROUND 1"><g id="man_and_stone" data-name="man and stone"><path class="cls-1" d="M101.19,129.94s1.12,6.63.19,6.38S74,138.48,74,138.48l-.5-15.11L101.17,120Z"/><path class="cls-2" d="M101.38,136.32c2.07,0,3.75-3.66,3.75-8.16s-1.68-8.15-3.75-8.15-3.75,3.66-3.75,8.15S99.32,136.32,101.38,136.32Z"/><path class="cls-3" d="M51.94,66.7c2.52.06,17.52,3.21,16.47-1.22-.48-2-26.72-26.21-29-25-3.73,2-9.44,3.77-8.18,9.52S51.94,66.7,51.94,66.7Z"/><path class="cls-4" d="M35.47,48.66c3-1.61,4.54-5.74,4.08-6.54S17.1,20.39,11.86,15.39C11.17,13.28,9.9,9.9,8,7.91,5.44,5.22-.72-2.24.07.66A42.2,42.2,0,0,0,3.39,8S.36,9.64.08,11.29,1.71,14.93,3,15.4a52.63,52.63,0,0,1,5.17,2.9c4.65,5.76,20.45,25.57,22.11,28.08A5.26,5.26,0,0,0,35.47,48.66Z"/><path class="cls-5" d="M35.47,48.66a5.37,5.37,0,0,1-4.29-1.23A6.52,6.52,0,0,0,31.27,50C32.32,54.79,46,63.19,50.49,65.86a39.13,39.13,0,0,1,3.81-3.72,84.55,84.55,0,0,1-9.53-6.27,17,17,0,0,1-6.41-10A8.12,8.12,0,0,1,35.47,48.66Z"/><path class="cls-6" d="M31.18,47.43a5.37,5.37,0,0,0,4.29,1.23,8.12,8.12,0,0,0,2.89-2.78,6.73,6.73,0,0,1-6.11-.79C29.3,43,11.24,19.28,10.34,18.21a8,8,0,0,0-2.89-2.63c-1.14-.43-5-1.44-5.38-2.66S4.69,8.16,5,7.84,0,.32,0,.32s0,0,0,.15,0,.12.05.19A42.2,42.2,0,0,0,3.39,8S.36,9.64.08,11.29,1.71,14.93,3,15.4a52.63,52.63,0,0,1,5.17,2.9c4.65,5.76,20.45,25.57,22.11,28.08A5.56,5.56,0,0,0,31.18,47.43Z"/><path class="cls-7" d="M79.52,44.19c8.11-1.44,21.28-10.27,27.18,5,3.43,8.86,4.94,30.41,4.5,40.64-.7,16.21.14,22.25-3.68,28.38-2,3.13-34,14.07-36.74-11.1C69.07,91.7,59,63.31,61.65,62.78S59.64,43,79.52,44.19Z"/><path class="cls-8" d="M111.69,71c-1.2-1.13-9.08-4.38-11-2s-1.42,23.29,1.11,25.16,7.22,6.75,9.84,3.85S111.69,71,111.69,71Z"/><path class="cls-9" d="M99.93,86.43c.36,3.87,1,7,1.92,7.7,2.53,1.88,7.22,6.75,9.84,3.85a5.92,5.92,0,0,0,.9-2.91,8,8,0,0,1-1.58-.28C107.21,93.75,102.88,89.66,99.93,86.43Z"/><path class="cls-10" d="M113.94,74.26c-.84,1.78-.28,4-4.12,4.69s-8.87-4.2-9.93-6.65-1.6-5.17,1.12-5.45,11,1.13,12,3A9.8,9.8,0,0,1,113.94,74.26Z"/><path class="cls-11" d="M79.63,119.16c4.31-1.31,9.91,1.12,15.83-8s2.45-52.4,3.2-56.62,2-9.28-1.22-10.5S64.88,49.59,63.38,54.53s-1.47,61.91,4.16,64.16S79.63,119.16,79.63,119.16Z"/><path class="cls-12" d="M89.66,61.79c1.41.47,7.79-2.35,7.69-7.6S96.17,44.93,99,43.6,106.91,53.54,108,51s-.94-8.91-4.6-11.25-36.84,2.15-39.19,6S59.47,59.63,63.5,61,89.66,61.79,89.66,61.79Z"/><path class="cls-13" d="M92.16,54.94a4.81,4.81,0,0,1,2.2,1,4.81,4.81,0,0,0-2.2-1Zm3.66-3.85c-1.81-1.3-7.41-2-9.11-3.08-.9-.6.24-1.67,1.38-3,1-1.15,2-2.47,1.63-3.82a3,3,0,0,0-1-1.47c-.89.1-1.79.2-2.7.32a7.5,7.5,0,0,1-3.44,2.41c0,.34-.08.67-.11,1s-.07.78-.09,1.14c0,.62,0,1.19,0,1.72a16.43,16.43,0,0,0,.76,5.11,3.5,3.5,0,0,1,.86.39c.47.1.94.21,1.4.33l.17-.19s1.26-1.68,3.58-.23,4.06,1.66,3,3.21l-.07.12-.16.1a11.61,11.61,0,0,0-1.68,1.41,11.78,11.78,0,0,0,.16,1.32c.09.6.23,1.25.4,2s.29,1.15.46,1.76c.33,1.17.72,2.43,1.15,3.75.43-.94,1.29-3.16,2.09-5.56.22-.65.44-1.32.64-2,.1-.32.19-.63.28-.94a8.69,8.69,0,0,0-1.07-1,21.22,21.22,0,0,0,.93-2.27A10.47,10.47,0,0,0,95.82,51.09Z"/><path class="cls-14" d="M90.41,61.81c2.16-.3,7-3,6.94-7.62-.09-5.25-1.18-9.26,1.69-10.59S106.91,53.54,108,51a5.81,5.81,0,0,0,.21-2.69,23.33,23.33,0,0,0-3.31-4.25c-3.1-3-6.47-5-8.72-2.34s1,6.81-.84,11.9-3.85,6.47-6.66,6.75A9.74,9.74,0,0,0,90.41,61.81Z"/><path class="cls-15" d="M47.07,242c0,.86-.7,4.94-.7,4.94s.48.56-4.69,3.34S31.41,253.35,32,254.8s17.75.27,17.75.27,4.25.66,5-.33S53.93,244,53.93,244Z"/><path class="cls-10" d="M77.11,123.26c2.14,1.45,5,4.13,6.34,4.56C86.87,129,87.66,148.2,88,151.46c2.42,21.67,3.46,69.08,2.86,97.76,0,1.75-8.42,1.86-8.58.66-2.2-16.69-13-93-14.72-97.33-1.72,9.59-10,80.94-12.95,97-.43,2.36-5,.24-8.79-2,3.22-15.77,2.09-123.43,5.63-123.55Z"/><path class="cls-16" d="M58.64,56.1c-5.87,2.51-5.06,47.43-10.47,76.66-1.29,7,14.54-3.44,35.1-3.57,2.75,0,1.13-20.4,5.61-41.73s8.7-27.27,6.27-29.66C84.71,47.58,70,51.23,58.64,56.1Z"/><path class="cls-17" d="M77.85,84.38c-.28.84-.75,9.28-1.69,10.69S59.76,93,58,95.44s-5.16,14.16-.94,15.1,23.25.47,23.25.47,4.31-2,3.47-10.13S77.85,84.38,77.85,84.38Z"/><path class="cls-18" d="M75.48,19c-6.42-5.65,2-11.38,2.52-10.88,1.12,1,1.7,2.25,4.66,3.12C97,15.43,99.33,25.35,95.58,24.92c0,0,2.86,1.7,1.3,7.17-1.3,4.58-13.11,13.07-16.94,11.82,0,0,3.87-12.22,2.2-17.9A10.41,10.41,0,0,0,75.48,19Z"/><path class="cls-19" d="M68,44.44a11.18,11.18,0,0,1,.65,7c-.2.83-6,10.26-1.16,11,5.51.82,17-7,16.06-9.62a17.58,17.58,0,0,1-1.19-8.19C82.58,41,84,35.26,83.5,35S68,44.44,68,44.44Z"/><path class="cls-20" d="M80.75,41c-3.28,5.75-16.8,4.5-18-.66-.18-1.7,1-5.82,1.9-7.58,0,0-2.72-2.34-1.83-3.51s6.31-3.73,6.31-3.73a9.24,9.24,0,0,1,1.75-4.82C74,15.88,80.73,15.3,85.43,18c9.1,5.2,11.15,10.64,3.21,16.65.55,1.78-2.16,6.3-5.51,6.81A4.54,4.54,0,0,1,80.75,41Z"/><path class="cls-18" d="M76.45,12.13c-1.26,1.38-3.07,4.55-2.22,5.51a18.53,18.53,0,0,0,6.19,4c3.31,1.43,6.44,2.38,5.74,3.87s-6.28,7-5.64,8.7,3.9-.7,5-1.07c1.63-.6,3.16,1.52,3.16,1.52a4.56,4.56,0,0,0,4.23-2.26c1.53-2.57,3.35-8.18-.51-12.12S76.45,12.13,76.45,12.13Z"/><path class="cls-4" d="M95.78,98.1c-1,.79-3.19,5.56-6.69,15.76a127.9,127.9,0,0,1-5.64,14A37.63,37.63,0,0,0,77.77,133c-1.09,1.65-1.48,2.18-.68,2.32s7.63,3.77,8.92,2.12,2.61-6,2.61-6c1.79-3.72,14.2-29.5,14.94-30.48S95.78,98.1,95.78,98.1Z"/><path class="cls-3" d="M100.74,69c-.64-5.16-4.61-14.29-9.17-14-16.67.88.69,33.7,1.46,38.28.31,1.85-3.7,10.88-1.58,10.88s11.91,4.31,12.25,1.53C110.27,90.64,100.74,69,100.74,69Z"/><path class="cls-15" d="M91,248.43c-.38-2.27-5.69-2.3-6.91.37-.41.91-1.7.66-1.82,1.08-.31,1.05-.16,4.49.43,5a5.42,5.42,0,0,0,1.49.8s-.66.46,1,1.47,6.62,1,8.67.38,1.81-1.81,1.33-2.44-2.79-2.78-3.24-4.33A8.48,8.48,0,0,0,91,248.43Z"/><path class="cls-21" d="M85.26,257.15c1.7,1,6.62,1,8.67.38,1.5-.47,1.77-1.23,1.62-1.85-2.22.57-6.06,1.32-8.1.65a23.32,23.32,0,0,1-5.14-2.61,2.34,2.34,0,0,0,.42,1.16,5.42,5.42,0,0,0,1.49.8S83.56,256.14,85.26,257.15Z"/><polygon class="cls-22" points="83.9 126.42 90.18 129.18 89.47 130.73 83.19 127.96 83.9 126.42"/><path class="cls-1" d="M86.63,131a2.36,2.36,0,1,0-2.39-2.36A2.38,2.38,0,0,0,86.63,131Z"/><path class="cls-3" d="M68.64,64.34C73,64.27,87.43,57,85.4,52.16c-.73-.2-1.47-.36-2.22-.49.12.36.25.73.4,1.12,1,2.64-10.55,10.44-16.06,9.62-3.9-.59-.91-6.79.52-9.64-.5.13-1,.27-1.48.42C63.64,57.48,60.62,64.46,68.64,64.34Z"/><path class="cls-2" d="M85.53,52s-4.83,5.14-5.7,15.88,7.1,32.62,9.1,32.38,2.93-6.48,2.48-8c-4-13.69-9.24-30.5.68-37.14,1.16-1.66-.65-1.88-3-3.33S85.53,52,85.53,52Z"/><path class="cls-23" d="M63.82,54.07c-3,2.8-9.59,14.28-10.81,33.15-.22,0-3.89-27.9,5.92-32.95A6.35,6.35,0,0,1,63.82,54.07Z"/><path class="cls-17" d="M65.74,123.63a62.36,62.36,0,0,1-15.56,6.8l-1.68.49-.33,1.84c-.3,1.61.31,2.29,1.68,2.39,4.43.32,16.76-5.46,31.88-5.93.5-.41,1-.83,1.52-1.23l-.06,0,.09-.2.62-1.34.18.07c.21-.45.44-1,.68-1.51.12-1,.22-2.15.32-3.43.43-5.77.77-14.26,2-23.62-3-5.87-8-21.53-7.27-30.09A34.24,34.24,0,0,1,82,58.25a36.47,36.47,0,0,1-8.5,4.8l2.67.29s1.31-.73-.14,4.5,1.31,16,3.48,27.13-.58,13.5-5.79,21.34A26.48,26.48,0,0,1,65.74,123.63Z"/><path class="cls-17" d="M88,79.69c.42,1.82.9,3.66,1.4,5.47l.24-1.08C89.07,82.69,88.51,81.22,88,79.69Z"/><path class="cls-6" d="M81.5,56.27c1.51-1.38,2.38-2.67,2.08-3.48-.15-.39-.28-.76-.4-1.12a17.68,17.68,0,0,1-.79-7.07c0-.65.11-1.38.2-2.13s.67-2.45.76-3.09a10,10,0,0,1-1.4.16l-.52,1.86a31.2,31.2,0,0,1-2.51,9.87,14.44,14.44,0,0,1-.84,1.55,22.46,22.46,0,0,1-3.3,4,53.25,53.25,0,0,1-7,5.67C71.59,62.85,78.13,59.34,81.5,56.27Z"/><path class="cls-24" d="M87.42,36.23c.18,1.48-1.65,2.68-3.51,3.4s-3.15-.77-2.63-1.85,1.67-.64,2.11-1.26-.09-.78.2-1.44C84.15,33.8,87.12,33.75,87.42,36.23Z"/><path class="cls-25" d="M54.63,249.59c3-16.1,11.23-87.45,12.95-97L65.51,139s-6,49.19-11.6,69.94a53.47,53.47,0,0,1-6.42,15.31c-.39,11.09-.9,19.71-1.65,23.38C49.68,249.83,54.2,252,54.63,249.59Z"/><path class="cls-25" d="M77.68,216.7c2.08,14.56,3.86,27.42,4.62,33.18.12-.42,1.41-.17,1.82-1.08,1.15-2.51,5.89-2.63,6.79-.76.54-28.79-.5-75.21-2.89-96.58-.18-1.59-.46-7-1.09-12.2,0,0-2.7,4.25-3.28,28.05C83.32,181.14,80.53,201.26,77.68,216.7Z"/><path class="cls-26" d="M97.72,105.75s-2.9,7.25-6.23,14.4c-1.08,2.33-2.21,4.64-3.3,6.69a2.31,2.31,0,0,1,.82,1.78v0l.77.33,4.91-10.17c2.11-4.34,4.35-8.94,6-12.4A28.14,28.14,0,0,1,97.72,105.75Z"/><path class="cls-26" d="M88.36,130.24a2.4,2.4,0,0,1-1.73.74,2.25,2.25,0,0,1-.74-.12q-.19.28-.36.57c-1.67,2.63-2.64,4.48-3.54,5.83,1.76.59,3.44.91,4,.17a8.83,8.83,0,0,0,.56-.87,33.1,33.1,0,0,0,2.05-5.15c.11-.21.25-.51.42-.87Z"/><path class="cls-5" d="M99.51,99a34.54,34.54,0,0,1-1.79,6.76,28.14,28.14,0,0,0,3,.68c1.63.25,2.84.12,3-.82.22-.5.42-1,.6-1.52C109.65,89.22,100.74,69,100.74,69c-.61-4.94-4.27-13.5-8.58-14l-.07.12-.16.1a11.61,11.61,0,0,0-1.68,1.41,11.78,11.78,0,0,0,.16,1.32,76.7,76.7,0,0,0,3.2,11c2.55,7.41,5.7,15.79,6.22,20.36A35,35,0,0,1,99.51,99Z"/><path class="cls-23" d="M76.31,30.91a5.41,5.41,0,0,1-5.57-.22c-3-1.78-1.06-3.25-2.37-4.77a30.57,30.57,0,0,1,1.4-3L85.48,33.12,83.67,34Z"/><path class="cls-27" d="M72.62,31.46c.23-1.82.57-4.42.8-6.19l-2.15-1.4c-.29,1.72-.76,4.47-1.1,6.45.17.12.36.25.57.37A6.13,6.13,0,0,0,72.62,31.46Z"/><path class="cls-2" d="M77.68,98.72s.57-4.42,1.34-10.4c1.61-12.48,4.09-32,4.09-33.51,0-2.08,0-3.38,0-3.38,1.73.58,1.51,1.2,1.51,3.38,0,2.35-5.43,44-5.45,44.1Z"/><path class="cls-2" d="M59.34,99l-1.47-.27c0-.13,8.29-44.83,8.63-45.24a4.9,4.9,0,0,1,1.64-.88C66.13,57.18,61.89,85,59.34,99Z"/><path class="cls-28" d="M63.11,96.89v.66H60.25v-.66a.24.24,0,0,1,0-.08H63.1A.22.22,0,0,1,63.11,96.89Z"/><rect class="cls-29" x="63.79" y="96.95" width="1.71" height="0.57"/><path class="cls-30" d="M79.44,98v10.08H57.84V98a.68.68,0,0,1,.09-.35H79.35A.68.68,0,0,1,79.44,98Z"/><path class="cls-31" d="M79.35,97.64H57.93a.73.73,0,0,1,.65-.4H78.69A.74.74,0,0,1,79.35,97.64Z"/><path class="cls-32" d="M79.44,108.07a.75.75,0,0,1-.75.74H58.58a.74.74,0,0,1-.74-.74Z"/><path class="cls-33" d="M73.5,103a4.87,4.87,0,1,1-4.86-4.87A4.87,4.87,0,0,1,73.5,103Z"/><path class="cls-34" d="M72.94,103a4.3,4.3,0,1,1-4.3-4.3A4.3,4.3,0,0,1,72.94,103Z"/><path class="cls-35" d="M72.37,103a3.73,3.73,0,1,1-3.73-3.73A3.73,3.73,0,0,1,72.37,103Z"/><path class="cls-28" d="M71.87,103a3.23,3.23,0,1,1-3.23-3.23A3.23,3.23,0,0,1,71.87,103Z"/><path class="cls-36" d="M70.53,103a1.9,1.9,0,1,1-1.89-1.9A1.89,1.89,0,0,1,70.53,103Z"/><path class="cls-28" d="M69.78,103a1.15,1.15,0,1,1-1.14-1.15A1.14,1.14,0,0,1,69.78,103Z"/><rect class="cls-37" x="72.74" y="98.09" width="3.42" height="1.44" rx="0.36"/><rect class="cls-38" x="72.88" y="98.23" width="3.15" height="1.16" rx="0.22"/><path class="cls-39" d="M61.06,105.55v-5a1.7,1.7,0,0,0-1.69-1.7H57.84v8.43h1.53A1.69,1.69,0,0,0,61.06,105.55Z"/><path class="cls-39" d="M76.22,100.51v5a1.69,1.69,0,0,0,1.69,1.69h1.53V98.81H77.91A1.7,1.7,0,0,0,76.22,100.51Z"/><path class="cls-40" d="M63.1,96.81H60.27a.29.29,0,0,1,.29-.22h2.25A.29.29,0,0,1,63.1,96.81Z"/><path class="cls-31" d="M69.62,102.8a.59.59,0,0,1-1.17,0,.59.59,0,1,1,1.17,0Z"/><path class="cls-41" d="M40,251.61c1.83-.94,4.54-1.64,5.31-3.57s.65-7.94,1.37-7.95,9.53.16,9.3,1-.27,8-.7,10.19.81,3.43-.48,3.07-16,.95-15.93.35A30.19,30.19,0,0,1,40,251.61Z"/><path class="cls-21" d="M46.37,253.62c-3.21.07-8.48.2-13.47,0-1.26.27-1,.88-.92,1.2.58,1.52,18.58.28,18.58.28s4.45.69,5.19-.35a12.3,12.3,0,0,0,0-2.12A89.06,89.06,0,0,1,46.37,253.62Z"/><rect class="cls-42" x="45.15" y="242.26" width="1.85" height="0.95" rx="0.47"/><rect class="cls-42" x="44.94" y="244.16" width="1.85" height="0.95" rx="0.47"/><rect class="cls-42" x="44.63" y="245.84" width="1.85" height="0.95" rx="0.47"/><path class="cls-43" d="M43.41,248.82l.48.76a.5.5,0,0,1-.16.66h0a.47.47,0,0,1-.65-.16l-.47-.76a.47.47,0,0,1,.15-.65h0A.47.47,0,0,1,43.41,248.82Z"/><path class="cls-43" d="M41.69,249.65l.47.76a.47.47,0,0,1-.15.65h0a.47.47,0,0,1-.65-.15l-.48-.76a.48.48,0,0,1,.15-.66h0A.48.48,0,0,1,41.69,249.65Z"/><path class="cls-43" d="M40.1,250.27l.47.76a.48.48,0,0,1-.15.66h0a.48.48,0,0,1-.66-.16l-.47-.76a.47.47,0,0,1,.15-.65h0A.48.48,0,0,1,40.1,250.27Z"/><path class="cls-44" d="M86.72,251.48c-1.74.05-4.51.8-4.54-.92s-1.83-10.88-1.28-11,9.64-1.43,10.12-.12-.07,5.92.58,10.08Z"/><path class="cls-43" d="M90,241.65l-6.14.43a.48.48,0,0,0-.44.51h0a.46.46,0,0,0,.5.44l6.15-.44a.47.47,0,0,0,.44-.5h0A.48.48,0,0,0,90,241.65Z"/><path class="cls-43" d="M90.25,243.92l-6.14.44a.46.46,0,0,0-.44.5h0a.47.47,0,0,0,.5.44l6.15-.43a.48.48,0,0,0,.44-.51h0A.48.48,0,0,0,90.25,243.92Z"/><path class="cls-43" d="M90.42,246.54l-6.15.44a.48.48,0,0,0-.44.51h0a.48.48,0,0,0,.51.44l6.14-.44a.47.47,0,0,0,.44-.51h0A.47.47,0,0,0,90.42,246.54Z"/><path class="cls-43" d="M92.05,252l-5.16.43a.48.48,0,0,0-.44.51h0a.46.46,0,0,0,.5.44l5.15-.43a.49.49,0,0,0,.45-.51h0A.47.47,0,0,0,92.05,252Z"/><path class="cls-43" d="M91.13,250.7l-5.15.42a.5.5,0,0,0-.45.52h0a.47.47,0,0,0,.51.43l5.15-.43a.48.48,0,0,0,.44-.51h0A.46.46,0,0,0,91.13,250.7Z"/><path class="cls-43" d="M90.62,249.59l-5.15.43a.49.49,0,0,0-.45.51h0a.46.46,0,0,0,.5.43l5.16-.42a.48.48,0,0,0,.44-.51h0A.47.47,0,0,0,90.62,249.59Z"/><path class="cls-18" d="M64.3,32.79s2.08,1.38,2.65,1.89,1.08,4.55,1.31,4.94,6.85.35,8.8-1.67a30.58,30.58,0,0,0,3.72-5.14l1.13,1a5.51,5.51,0,0,0-1.64,4c0,2.59.48,3.19.48,3.19a7.2,7.2,0,0,1-3.42,3.45c-2.71,1.47-10,1.26-12.42-.64s-3.21-2.18-2.67-4.32S64.3,32.79,64.3,32.79Z"/><path class="cls-45" d="M270,268.3c-13.1,0-141.68-19.71-141.68-19.71L66,250.31,2,257.22l11.7,58.51,24,23.41,6.11,47.16H270Z"/></g></g></g></svg>