<svg xmlns="http://www.w3.org/2000/svg" viewBox="0 0 233.54 418.19"><defs><style>.cls-1{fill:#302c30;}.cls-1,.cls-2,.cls-3,.cls-4,.cls-5,.cls-6,.cls-7,.cls-8{fill-rule:evenodd;}.cls-2{fill:#303435;}.cls-3{fill:#304b4c;}.cls-4{fill:#304434;}.cls-5{fill:#304e39;}.cls-6{fill:#304936;}.cls-7{fill:#578341;}.cls-8{fill:#303731;}</style></defs><g id="Layer_2" data-name="Layer 2"><g id="BACKGROUND_1" data-name="BACKGROUND 1"><g id="tree"><path class="cls-1" d="M0,42.76H207.4V80.05c-1.4-.61-2.27-1-2.27-1S202,94.75,175.25,97.41s-51.8-14.17-51.8-14.17-15.72,27-46.71,16.6S49.07,71.51,49.07,71.51s-12,15-29,2.87C8.19,65.9,2.23,51.57,0,42.76Z"/><path class="cls-2" d="M135,119.32c-12.77,2.52-23.77.5-33.19-5.44-13.87-35.55,4.6-79.29,4-79.34L101,34.13c-6.32,18.07-14.22,48-10.88,69.52-13.67-15.86-23-42.32-28.85-76.42l-2.94.84C56.34,99.14,93.19,135.79,135,134.6Z"/><path class="cls-3" d="M130.05,134.56q.27-4.06.56-8.09-.29,4-.56,8.09ZM95.94,119c-8.41-5.09-20.36-17.09-20.36-17.09,13.32,20.68,33.05,31.72,54.47,32.66q-.27,3.84-.54,7.74a3.23,3.23,0,0,0,1.74-1L142,126.64a39,39,0,0,1-7,.19c-1.31-.06-2.78-.17-4.4-.36a74.83,74.83,0,0,1-10.32-2c-13.17-3.43-15.94-5.42-16.27-4.31S104.35,124.08,95.94,119Z"/><path class="cls-2" d="M138.55,0c0,29.07-29.21,410.87-26.12,411.31s67.3,2.22,67.3,2.22l-1.62-241.38-1-154.44Z"/><path class="cls-2" d="M174.06,158.54c45.5,2.85,51.32-28.9,54.81-52.72a46.17,46.17,0,0,1,4.65,0c.61,42.12-13.47,57.05-59.68,66.82C173.84,172.6,172.26,168.9,174.06,158.54Z"/><path class="cls-3" d="M207.4,151.64c-6,3.93-13.86,6.5-24.13,7-.62,1.36,1.9,2.22,12.95,1,6-.69-8.39,6.32,5,1a40.55,40.55,0,0,0,6.18-3.16c10.45-6.46,19.06-17,13.82-14.52-2.48,1.16,13-18.17,5.53-20.51a1.42,1.42,0,0,0-1,.11C222.9,133.81,217.89,144.79,207.4,151.64Z"/><path class="cls-3" d="M138.11,213.18C139.62,194.3,143,102,144.83,42.76c.52-16.41.91-30.29,1.12-39.36L138.55,0c0,5-.87,20.52-2.29,42.76-4.44,69.48-14.3,204.66-19.92,290.57,2.84-10.21,6-23.69,9.37-38.68C135.37,251.64,135.9,240.86,138.11,213.18Z"/><path class="cls-3" d="M149,149.43c-3.54,47.82,7.08,108-10.63,179.75-8.07,32.7-11.54,59.15-12.93,78.24-.11,1.53-.21,3-.3,4.46,11.63.4,28.76.91,40.73,1.25-.2-1.81-.39-3.72-.59-5.71-2.44-24.19-5.29-60.28-4.77-92.85.89-55.34,14.17-93,9.3-128.84-4.39-32.29-7.16-110.71-4.59-143,.28-3.57.63-6.57,1-8.89a185.25,185.25,0,0,1,4.49-19.08l-15.17-7c-.31,8.8-.75,21.05-1.29,34.94C152.9,77.65,150.93,122.85,149,149.43Z"/><path class="cls-3" d="M58.81,47.38C60.17,64.81,64.14,79.71,70.05,92c1.92,1.59,4,3.22,5,3.91C64.15,76.72,58.81,47.38,58.81,47.38Z"/><path class="cls-3" d="M69.71,78.59c5.53,14.72,22.69,37.3,21.69,34.64s-3-7.85-3-7.85L96.05,109S91.73,83.46,93,74.16c.73-5.57,4.88-20.33,8-31.4.91-3.24,1.73-6.15,2.35-8.44L101,34.13c-.93,2.64-1.88,5.54-2.84,8.63-5.55,18-10.89,42.53-8,60.89C78.63,90.28,70.21,69.4,64.33,42.76q-1.65-7.47-3-15.53l-1.47.42s.78,6.5,2.1,15.11C63.72,54.47,66.52,70.1,69.71,78.59Z"/><path class="cls-4" d="M38.22,18.82C34.45,26.79,33,47.29,60,53s29.61-3.82,29.61-3.82.22,13.72,21.91,20.58,42.42-18.17,42.42-18.17S162,73.28,186.76,66.64s29-34.76,28.56-36.09S38.22,18.82,38.22,18.82Z"/><path class="cls-5" d="M51.67,69.37c26.64.21,40.1-9.28,38.3-24.6C76.78,36.76,62.56,45.05,51.67,69.37Z"/><path class="cls-6" d="M90,44.77c-13.19-8-27.41.28-38.3,24.6Z"/><path class="cls-7" d="M89.93,44.71a.08.08,0,0,1,.1,0,.07.07,0,0,1,0,.09L57.81,65.51a.06.06,0,0,1-.09,0,.07.07,0,0,1,0-.09Z"/><path class="cls-7" d="M59.93,60a.06.06,0,0,1-.06-.07.07.07,0,0,1,.07-.07l5.54.54s.07,0,.06.08h0l-1.68,6.23a.06.06,0,0,1-.08,0,.07.07,0,0,1-.05-.08l1.66-6.16C64.74,60.5,60.25,60.05,59.93,60Z"/><path class="cls-7" d="M65.53,55.54a.08.08,0,0,1-.07-.07.08.08,0,0,1,.08-.07l6.81.62a.08.08,0,0,1,.06.08h0L71.15,63a.08.08,0,0,1-.08.06S71,63.06,71,63l1.25-6.87Z"/><path class="cls-7" d="M78.54,59.83s0,.07-.08.06a.07.07,0,0,1,0-.08l1.35-8.48L71.42,49.8a.06.06,0,0,1-.06-.07s0-.07.08-.06l8.41,1.54a.07.07,0,0,1,.06.07Z"/><path class="cls-7" d="M84.93,54.68a.07.07,0,0,1-.08,0,.08.08,0,0,1-.06-.08l1.35-7.42-7.77-1.57a.06.06,0,0,1-.05-.08s0-.06.08,0l7.83,1.58a.08.08,0,0,1,.06.08Z"/><path class="cls-5" d="M112.79,67.68c22-15.07,27.59-30.55,17.34-42.09C114.74,26.56,107.81,41.5,112.79,67.68Z"/><path class="cls-6" d="M130.13,25.59c-15.39,1-22.32,15.91-17.34,42.09Z"/><path class="cls-7" d="M130.07,25.56a.07.07,0,0,1,.09,0,.08.08,0,0,1,0,.09L115.62,61a.06.06,0,0,1-.09,0,.08.08,0,0,1,0-.09Z"/><path class="cls-7" d="M114.22,55.29a.07.07,0,0,1-.09,0,.08.08,0,0,1,0-.1L119,52.45a.07.07,0,0,1,.09,0h0l2.19,6.08a.07.07,0,0,1,0,.08.06.06,0,0,1-.08,0l-2.16-6Z"/><path class="cls-7" d="M116.25,48.41a.07.07,0,0,1-.1,0,.08.08,0,0,1,0-.09l5.94-3.39a.06.06,0,0,1,.09,0h0l2.93,6.41a.07.07,0,1,1-.13,0l-2.9-6.34Z"/><path class="cls-7" d="M129.38,44.48a.09.09,0,0,1,0,.1s-.08,0-.09,0l-3.74-7.73-7.72,3.52s-.08,0-.09,0a.07.07,0,0,1,0-.09l7.78-3.55a.07.07,0,0,1,.09,0Z"/><path class="cls-7" d="M131.67,36.6s0,.08,0,.09a.07.07,0,0,1-.09,0L128.4,29.8,121.13,33a.07.07,0,0,1,0-.13l7.33-3.18a.07.07,0,0,1,.09,0Z"/><path class="cls-5" d="M52.5,50.32c15.68-10.75,19.68-21.8,12.38-30C53.89,21,49,31.64,52.5,50.32Z"/><path class="cls-6" d="M64.88,20.29C53.89,21,49,31.64,52.5,50.32Z"/><path class="cls-7" d="M64.83,20.27a0,0,0,0,1,.06,0,0,0,0,0,1,0,.06L54.52,45.55a0,0,0,0,1-.06,0,.05.05,0,0,1,0-.07Z"/><path class="cls-7" d="M53.52,41.48a0,0,0,0,1-.06,0,0,0,0,0,1,0-.07c.2-.13,3.45-1.94,3.46-1.95a.07.07,0,0,1,.07,0h0l1.56,4.33a0,0,0,0,1,0,.06,0,0,0,0,1-.06,0l-1.54-4.27Z"/><path class="cls-7" d="M55,36.57s0,0-.07,0a0,0,0,0,1,0-.06l4.24-2.42a0,0,0,0,1,.06,0h0l2.09,4.58a0,0,0,0,1,0,.06,0,0,0,0,1-.06,0l-2.07-4.53Z"/><path class="cls-7" d="M64.34,33.77s0,0,0,.07a0,0,0,0,1-.06,0L61.58,28.3l-5.51,2.51a0,0,0,0,1-.06,0,.06.06,0,0,1,0-.07l5.55-2.53a.06.06,0,0,1,.07,0Z"/><path class="cls-7" d="M66,28.15a0,0,0,0,1,0,.06.06.06,0,0,1-.07,0l-2.24-4.9-5.19,2.26a0,0,0,0,1-.06,0,0,0,0,0,1,0-.06l5.23-2.27a.06.06,0,0,1,.07,0Z"/><path class="cls-5" d="M18.88,69.75C37.33,65.14,44.93,56.18,41,45.92,30.42,42.74,22.07,51,18.88,69.75Z"/><path class="cls-6" d="M41,45.92C30.42,42.74,22.07,51,18.88,69.75Z"/><path class="cls-7" d="M40.92,45.89a.06.06,0,0,1,.07,0A0,0,0,0,1,41,46L22.44,66a0,0,0,0,1-.07,0,.06.06,0,0,1,0-.07Z"/><path class="cls-7" d="M22.92,61.82a.08.08,0,0,1-.06,0,.07.07,0,0,1,0-.06l3.93-.61s.05,0,.06,0h0l-.05,4.6a.05.05,0,0,1-.05,0,0,0,0,0,1-.05,0l.05-4.55Z"/><path class="cls-7" d="M26,57.72a.05.05,0,1,1,0-.1l4.82-.78s.05,0,.05,0h0l.37,5a0,0,0,0,1-.05.05s-.05,0-.05,0l-.36-5Z"/><path class="cls-7" d="M35.74,58.36a0,0,0,0,1,0,.06,0,0,0,0,1-.05-.05l-.58-6.1-6,.44a.05.05,0,0,1-.05-.05,0,0,0,0,1,.05,0l6.08-.44a.06.06,0,0,1,.06,0Z"/><path class="cls-7" d="M39.24,53.66a.06.06,0,0,1-.05.06.05.05,0,0,1,0,0l-.39-5.37-5.65.3a0,0,0,0,1-.05,0,0,0,0,0,1,.05-.05l5.69-.31a0,0,0,0,1,.05,0Z"/><path class="cls-5" d="M84.29,81.65c18.45-4.61,26.05-13.56,22.08-23.83C95.83,54.64,87.48,62.9,84.29,81.65Z"/><path class="cls-6" d="M106.37,57.82C95.83,54.64,87.48,62.9,84.29,81.65Z"/><path class="cls-7" d="M106.33,57.79a0,0,0,1,1,.07.07l-18.55,20a0,0,0,0,1-.07,0s0,0,0-.07Z"/><path class="cls-7" d="M88.33,73.72s0,0,0,0,0-.05,0-.05c.24,0,3.91-.62,3.92-.62a.05.05,0,0,1,.06,0h0l0,4.6a0,0,0,1,1-.1,0l0-4.54Z"/><path class="cls-7" d="M91.4,69.62s-.05,0-.06,0a.05.05,0,0,1,0,0l4.81-.79a.05.05,0,0,1,.06,0h0l.36,5a.06.06,0,0,1-.05.06.05.05,0,0,1,0,0l-.36-5Z"/><path class="cls-7" d="M101.16,70.27a0,0,0,0,1,0,0s0,0,0,0l-.57-6.1-6,.43a.07.07,0,0,1-.06,0,.06.06,0,0,1,0-.06l6.09-.43s0,0,0,0Z"/><path class="cls-7" d="M104.65,65.57s0,.05,0,.05a.07.07,0,0,1-.06,0l-.39-5.37-5.65.3a.05.05,0,0,1-.05,0,0,0,0,0,1,.05-.05l5.69-.3a0,0,0,0,1,0,0Z"/><path class="cls-5" d="M104.08,41.7c6.31-17.94,3-29.22-7.74-31.55C87.88,17.2,90.18,28.72,104.08,41.7Z"/><path class="cls-6" d="M96.34,10.15c-8.46,7-6.16,18.57,7.74,31.55Z"/><path class="cls-7" d="M96.29,10.16s0-.05,0-.05a0,0,0,0,1,.06,0l6.5,26.51a0,0,0,0,1,0,.06s0,0-.06,0Z"/><path class="cls-7" d="M99.68,34s0,0-.06,0a0,0,0,0,1,0-.06l1.65-3.62a.06.06,0,0,1,.07,0h0l3.82,2.57a0,0,0,0,1,0,.07,0,0,0,0,1-.06,0l-3.77-2.54C101.11,30.82,99.77,33.75,99.68,34Z"/><path class="cls-7" d="M98,29.14a0,0,0,0,1-.06,0,.05.05,0,0,1,0-.07l2-4.45s0,0,.07,0h0l4.38,2.46s0,0,0,.06,0,0-.06,0l-4.35-2.43Z"/><path class="cls-7" d="M103.86,21.35a.07.07,0,0,1,0,.07.06.06,0,0,1-.07,0L98.4,18.56l-3,5.28a0,0,0,0,1-.06,0,0,0,0,0,1,0-.07l3-5.32a.06.06,0,0,1,.07,0Z"/><path class="cls-7" d="M101.86,15.85a.06.06,0,0,1,0,.07,0,0,0,0,1-.07,0l-4.7-2.62-2.85,4.88a0,0,0,0,1-.07,0,0,0,0,0,1,0-.06l2.88-4.92a.05.05,0,0,1,.07,0Z"/><path class="cls-5" d="M160.66,67.41c6.31-17.94,3-29.22-7.74-31.55C144.46,42.91,146.76,54.43,160.66,67.41Z"/><path class="cls-6" d="M152.92,35.86c-8.46,7-6.16,18.57,7.74,31.55Z"/><path class="cls-7" d="M152.87,35.88s0-.06,0-.06a0,0,0,0,1,.06,0l6.5,26.52s0,.05,0,.06-.06,0-.06,0Z"/><path class="cls-7" d="M156.27,59.67a.06.06,0,0,1-.07,0,.06.06,0,0,1,0-.07c.09-.22,1.64-3.6,1.64-3.61s0,0,.07,0h0l3.81,2.57a.05.05,0,0,1,0,.07,0,0,0,0,1-.07,0l-3.77-2.54C157.69,56.53,156.35,59.46,156.27,59.67Z"/><path class="cls-7" d="M154.53,54.85a0,0,0,0,1-.06,0,.05.05,0,0,1,0-.07l2-4.45a0,0,0,0,1,.06,0h0l4.39,2.46a0,0,0,0,1,0,.06s0,0-.06,0l-4.35-2.43Z"/><path class="cls-7" d="M160.44,47.06a.05.05,0,0,1,0,.07,0,0,0,0,1-.06,0L155,44.27l-3,5.28a0,0,0,0,1-.06,0s0,0,0-.07l3-5.32a.07.07,0,0,1,.07,0Z"/><path class="cls-7" d="M158.44,41.56a.05.05,0,1,1-.05.09L153.7,39l-2.86,4.88a.05.05,0,0,1-.09,0l2.89-4.92a0,0,0,0,1,.06,0Z"/><path class="cls-5" d="M198.85,58.93c-.92-19-8.22-28.2-19.07-26.3C174.61,42.35,181.09,52.15,198.85,58.93Z"/><path class="cls-6" d="M179.78,32.63c-5.17,9.72,1.31,19.52,19.07,26.3Z"/><path class="cls-7" d="M179.74,32.66a.05.05,0,0,1,0-.07s.05,0,.06,0l16,22.1a0,0,0,0,1,0,.07,0,0,0,0,1-.07,0Z"/><path class="cls-7" d="M191.86,53.42a0,0,0,0,1-.05,0,0,0,0,0,1,0,0c0-.25.16-4,.16-4a0,0,0,0,1,0-.05h0l4.5.94s0,0,0,.06,0,0-.06,0L192,49.51C192,50,191.87,53.19,191.86,53.42Z"/><path class="cls-7" d="M188.44,49.61a0,0,0,0,1-.05,0,.05.05,0,0,1,0,0l.17-4.88a0,0,0,0,1,.05,0h0l5,.62s0,0,0,0,0,0,0,0l-4.94-.61Z"/><path class="cls-7" d="M191,40.17a0,0,0,0,1,0,0s0,.05-.05,0l-6.1-.62-.75,6s0,0-.06,0,0,0,0-.06l.76-6.05s0,0,.05,0Z"/><path class="cls-7" d="M187.05,35.83a0,0,0,0,1,0,.05.05.05,0,0,1-.06,0l-5.34-.66-.8,5.6a.05.05,0,0,1-.06,0s0,0,0-.06l.81-5.64a.05.05,0,0,1,.06,0Z"/><path class="cls-5" d="M178.15,46.26c-.93-19-8.23-28.19-19.07-26.29C153.9,29.68,160.38,39.48,178.15,46.26Z"/><path class="cls-6" d="M159.08,20c-5.18,9.71,1.3,19.51,19.07,26.29Z"/><path class="cls-7" d="M159,20a0,0,0,0,1,0-.07,0,0,0,0,1,.07,0l16,22.1a.05.05,0,0,1,0,.07s0,0-.06,0Z"/><path class="cls-7" d="M171.16,40.75a0,0,0,0,1-.1,0l.16-4s0-.05.05-.05h0l4.51,1s0,0,0,.06a0,0,0,0,1-.06,0l-4.45-.93C171.3,37.31,171.16,40.52,171.16,40.75Z"/><path class="cls-7" d="M167.74,36.94a.05.05,0,0,1-.05.05,0,0,0,0,1-.05-.05l.17-4.87a0,0,0,0,1,.05,0h0l5,.62a.05.05,0,0,1,.05,0,.06.06,0,0,1-.06.05l-4.94-.62Z"/><path class="cls-7" d="M170.27,27.5s0,0,0,.05a0,0,0,0,1-.05.05l-6.1-.63-.75,6s0,.05,0,0-.05,0,0-.05l.75-6.06a.07.07,0,0,1,.06,0Z"/><path class="cls-7" d="M166.34,23.16s0,0,0,.05a0,0,0,0,1,0,.05L161,22.59l-.81,5.6s0,0-.05,0,0,0,0-.05l.81-5.65s0,0,0,0Z"/><path class="cls-8" d="M128.13,413.59s-.92-11.33-9.44-23.52-13.56-19.69-16.58-30.19l1-1.5s4.45,14.19,11.42,22.53,10.83,14.91,13.3,24.51S128.13,413.59,128.13,413.59Z"/><path class="cls-8" d="M125.91,402.27s-5.35-6.64-17.12-6.61c1.49,7,7.34,6.71,17.28,8.14C126.47,402.37,125.91,402.27,125.91,402.27Z"/><path class="cls-8" d="M125.37,399.82s0-.05,0-.13c-.24-1.14-1.81-9.95,5.27-14.74,2.25,6.65-3.52,13-4.57,16.35A10.73,10.73,0,0,1,125.37,399.82Z"/><path class="cls-8" d="M121.08,392.63a19.89,19.89,0,0,0-10.43-6.95c-7.18-2.11-10.52-1.72-11.5-2.73.46,3.21,3.7,5.34,9.1,7.52s10.53,2.68,13.66,4A5.45,5.45,0,0,0,121.08,392.63Z"/><path class="cls-8" d="M121,390s-1.67-7.58-.88-13,1.75-9.13,2.64-6.75,5,13.16-1.17,20.84Z"/><path class="cls-8" d="M114.05,380.88s-1.39-7.18-1-12.22,3.26-9.93,3.52-8.92,3.24,6.62,2.26,12.05a23,23,0,0,1-4.11,9.32Z"/><path class="cls-8" d="M112,379.42s-1.52-2.7-9.27-5.71-9.7-3-8.52-1.66,6.92,9.14,20.31,11.36A16.56,16.56,0,0,0,112,379.42Z"/><path class="cls-8" d="M108.1,373s-2.7-9.51-.56-15.66,1.39-11.12,3.4-3.66,1.25,12.81-1.07,15.51S108.1,373,108.1,373Z"/><path class="cls-8" d="M105.76,368.5s-2.18-6-11.5-7.27c2.87,6.94,7.64,8.43,12.51,9.35Z"/><path class="cls-8" d="M102.56,360.36s-3.84-2.5-5.76-10.25-.28-12.58-.28-12.58,4.42,5,5.79,9.77S105.06,358.43,102.56,360.36Z"/><path class="cls-8" d="M150.17,418.11s-.92-11.33-9.43-23.52-13.57-19.68-16.58-30.18l1-1.5s4.44,14.19,11.42,22.53,10.83,14.91,13.3,24.51S150.17,418.11,150.17,418.11Z"/><path class="cls-8" d="M148,406.79s-5.34-6.64-17.11-6.6c1.49,7,7.34,6.71,17.27,8.14C148.52,406.89,148,406.79,148,406.79Z"/><path class="cls-8" d="M147.42,404.34l0-.12c-.24-1.14-1.8-10,5.28-14.74,2.24,6.64-3.52,13-4.57,16.34A9.56,9.56,0,0,1,147.42,404.34Z"/><path class="cls-8" d="M143.13,397.16a19.89,19.89,0,0,0-10.43-7c-7.18-2.11-10.52-1.72-11.5-2.73.45,3.21,3.7,5.34,9.1,7.52s10.53,2.68,13.66,4A5.45,5.45,0,0,0,143.13,397.16Z"/><path class="cls-8" d="M143,394.54s-1.66-7.58-.87-13,1.75-9.13,2.63-6.76,5,13.16-1.16,20.84Z"/><path class="cls-8" d="M136.1,385.4s-1.39-7.17-1-12.22,3.26-9.92,3.52-8.91,3.24,6.62,2.25,12.05a22.94,22.94,0,0,1-4.1,9.32Z"/><path class="cls-8" d="M134,384s-1.51-2.71-9.26-5.72-9.7-3-8.53-1.65,6.92,9.14,20.32,11.36A16.81,16.81,0,0,0,134,384Z"/><path class="cls-8" d="M130.14,377.5s-2.69-9.51-.55-15.66,1.38-11.12,3.4-3.66,1.25,12.81-1.07,15.5S130.14,377.5,130.14,377.5Z"/><path class="cls-8" d="M127.8,373s-2.17-6-11.49-7.27c2.87,6.93,7.64,8.42,12.51,9.35Z"/><path class="cls-8" d="M124.61,364.89s-3.84-2.5-5.77-10.26-.27-12.57-.27-12.57,4.42,5,5.79,9.77S127.11,363,124.61,364.89Z"/><path class="cls-8" d="M141.62,417.65s4.52-12.72,18-24.12S181.23,375.08,187.9,364l-.66-2s-9.44,14.93-20,22.37-17,13.81-22.76,24.08S141.62,417.65,141.62,417.65Z"/><path class="cls-8" d="M147.63,405.34s8.17-6,21.67-2.36c-3.85,7.59-10.48,5.46-22.32,4.07C147,405.28,147.63,405.34,147.63,405.34Z"/><path class="cls-8" d="M149,402.69l.07-.14c.62-1.23,5.11-10.87-1.55-18.53-4.61,6.94.08,16,.25,20.16A11.82,11.82,0,0,0,149,402.69Z"/><path class="cls-8" d="M156.12,395.75A23.52,23.52,0,0,1,170.21,391c8.89-.23,12.6,1.24,14,.38-1.51,3.55-5.88,5-12.74,5.85s-12.91-.14-16.92.44A6.41,6.41,0,0,1,156.12,395.75Z"/><path class="cls-8" d="M157.05,392.78s4.22-8.19,5-14.6.78-11-1-8.56-9.76,13.58-5,24.28Z"/><path class="cls-8" d="M167.78,384.4s3.78-7.81,4.93-13.71-.71-12.39-1.32-11.31-5.74,6.61-6.27,13.15a27.32,27.32,0,0,0,1.86,12Z"/><path class="cls-8" d="M170.59,383.36s2.57-2.64,12.38-3.72,12.06-.49,10.3.7-10.74,8.38-26.8,6.83A19.91,19.91,0,0,1,170.59,383.36Z"/><path class="cls-8" d="M177,377.15s6-10.1,5.42-17.81,1.81-13.19-2.78-5.23-5.35,14.31-3.51,18.12S177,377.15,177,377.15Z"/><path class="cls-8" d="M181.08,372.73s4.33-6.2,15.42-4.83c-5.42,7.08-11.35,7.34-17.22,6.91Z"/><path class="cls-8" d="M187.24,364.37s5.17-1.7,9.75-10S201.15,340,201.15,340s-6.61,4.42-9.63,9.45S185,361.38,187.24,364.37Z"/></g></g></g></svg>